<svg width="61" height="60" viewBox="0 0 61 60" fill="none" xmlns="http://www.w3.org/2000/svg">
<g clip-path="url(#clip0)">
<path d="M24.3411 30C24.3411 33.1714 26.9119 35.7422 30.0833 35.7422C33.2546 35.7422 35.8254 33.1714 35.8254 30C35.8254 26.8286 33.2546 24.2578 30.0833 24.2578C26.9119 24.2578 24.3411 26.8286 24.3411 30Z" fill="#7C7C7C"/>
<path d="M16.6542 19.8403C16.9302 19.0923 17.3706 18.4153 17.9428 17.8596C18.4985 17.2874 19.1751 16.847 19.9235 16.571C20.5305 16.3352 21.4424 16.0546 23.1219 15.9781C24.9388 15.8953 25.4835 15.8774 30.0831 15.8774C34.6832 15.8774 35.2279 15.8948 37.0443 15.9777C38.7239 16.0546 39.6362 16.3352 40.2427 16.571C40.9912 16.847 41.6682 17.2874 42.2235 17.8596C42.7957 18.4153 43.2361 19.0919 43.5125 19.8403C43.7483 20.4473 44.0289 21.3596 44.1053 23.0392C44.1882 24.8556 44.2061 25.4003 44.2061 30.0004C44.2061 34.6 44.1882 35.1447 44.1053 36.9616C44.0289 38.6411 43.7483 39.553 43.5125 40.16C43.2361 40.9084 42.7961 41.585 42.2239 42.1407C41.6682 42.7129 40.9916 43.1533 40.2432 43.4293C39.6362 43.6655 38.7239 43.9461 37.0443 44.0226C35.2279 44.1054 34.6837 44.1228 30.0836 44.1228C25.4831 44.1228 24.9383 44.1054 23.1224 44.0226C21.4428 43.9461 20.5305 43.6655 19.9235 43.4293C18.4211 42.8498 17.2337 41.6624 16.6542 40.16C16.4184 39.553 16.1378 38.6411 16.0609 36.9616C15.9781 35.1447 15.9607 34.6 15.9607 30.0004C15.9607 25.4003 15.9781 24.8556 16.0609 23.0392C16.1374 21.3596 16.418 20.4473 16.6542 19.8403ZM30.0831 38.8457C34.9688 38.8457 38.9294 34.8856 38.9294 29.9999C38.9294 25.1142 34.9688 21.1541 30.0831 21.1541C25.1979 21.1541 21.2373 25.1142 21.2373 29.9999C21.2373 34.8856 25.1979 38.8457 30.0831 38.8457ZM20.8876 22.8716C22.0292 22.8716 22.9548 21.946 22.9548 20.8044C22.9548 19.6627 22.0292 18.7371 20.8876 18.7371C19.7459 18.7371 18.8203 19.6627 18.8203 20.8044C18.8208 21.946 19.7459 22.8716 20.8876 22.8716Z" fill="#7C7C7C"/>
<path d="M30.0833 0C46.6493 0 60.0833 13.434 60.0833 30C60.0833 46.566 46.6493 60 30.0833 60C13.5172 60 0.083252 46.566 0.083252 30C0.083252 13.434 13.5172 0 30.0833 0ZM12.9606 37.1022C13.0439 38.936 13.3355 40.188 13.7612 41.2839C14.6562 43.5979 16.4854 45.4271 18.7994 46.322C19.8948 46.7477 21.1472 47.0389 22.9806 47.1227C24.8176 47.2064 25.4044 47.2266 30.0828 47.2266C34.7616 47.2266 35.348 47.2064 37.1855 47.1227C39.0188 47.0389 40.2712 46.7477 41.3667 46.322C42.5166 45.8894 43.5575 45.2115 44.4181 44.3349C45.2943 43.4747 45.9722 42.4333 46.4048 41.2839C46.8305 40.1884 47.1221 38.936 47.2054 37.1027C47.2901 35.2652 47.3098 34.6783 47.3098 30C47.3098 25.3217 47.2901 24.7348 47.2059 22.8978C47.1226 21.064 46.8315 19.812 46.4057 18.7161C45.9731 17.5667 45.2947 16.5253 44.4181 15.6651C43.558 14.7885 42.5166 14.1106 41.3671 13.678C40.2712 13.2523 39.0193 12.9611 37.1855 12.8773C35.3484 12.7936 34.7616 12.7734 30.0833 12.7734C25.4049 12.7734 24.8181 12.7936 22.981 12.8778C21.1472 12.9611 19.8953 13.2523 18.7994 13.6775C17.6499 14.1101 16.6085 14.7885 15.7479 15.6651C14.8718 16.5257 14.1934 17.5667 13.7612 18.7161C13.3351 19.812 13.0439 21.064 12.9601 22.8978C12.8764 24.7348 12.8567 25.3217 12.8567 30C12.8567 34.6783 12.8764 35.2652 12.9606 37.1022Z" fill="#7C7C7C"/>
</g>
<defs>
<clipPath id="clip0">
<rect width="60" height="60" fill="white" transform="matrix(-1 0 0 1 60.0833 0)"/>
</clipPath>
</defs>
</svg>
